<?xml version="1.0" encoding="utf-8"?>
<svg version="1.1" xmlns:xlink="http://www.w3.org/1999/xlink" width="26px" height="26px" xmlns="http://www.w3.org/2000/svg">
  <defs>
    <mask fill="white" id="clip9">
      <path d="M 0 13  C 0 5.72000000000003  5.72 0  13 0  C 13.6954769299367 0  14.3767165710173 0.052203392472677  15.0400919247272 0.152983178903639  C 21.3206889259993 1.1071296073282  26 6.41547692993674  26 13  C 26 20.28  20.28 26  13 26  C 5.72 26  0 20.28  0 13  Z " fill-rule="evenodd" />
    </mask>
  </defs>
  <g transform="matrix(1 0 0 1 -236 -562 )">
    <path d="M 0 13  C 0 5.72000000000003  5.72 0  13 0  C 13.6954769299367 0  14.3767165710173 0.052203392472677  15.0400919247272 0.152983178903639  C 21.3206889259993 1.1071296073282  26 6.41547692993674  26 13  C 26 20.28  20.28 26  13 26  C 5.72 26  0 20.28  0 13  Z " fill-rule="nonzero" fill="#f59a23" stroke="none" transform="matrix(1 0 0 1 236 562 )" />
    <path d="M 0 13  C 0 5.72000000000003  5.72 0  13 0  C 13.6954769299367 0  14.3767165710173 0.052203392472677  15.0400919247272 0.152983178903639  C 21.3206889259993 1.1071296073282  26 6.41547692993674  26 13  C 26 20.28  20.28 26  13 26  C 5.72 26  0 20.28  0 13  Z " stroke-width="2" stroke="#555555" fill="none" transform="matrix(1 0 0 1 236 562 )" mask="url(#clip9)" />
  </g>
</svg>