<?xml version="1.0" encoding="utf-8"?>
<svg version="1.1" xmlns:xlink="http://www.w3.org/1999/xlink" width="103px" height="68px" xmlns="http://www.w3.org/2000/svg">
  <g transform="matrix(1 0 0 1 -40 -112 )">
    <path d="M 101.13935483871 9.38720538720539  C 102.379784946237 10.4556677890011  103 11.7530864197531  103 13.2794612794613  C 103 14.8058361391695  102.379784946237 16.1032547699214  101.13935483871 17.1717171717172  L 53.0283870967742 58.6127946127946  L 43.9909677419355 66.3973063973064  C 42.7505376344086 67.4657687991021  41.2443010752688 68  39.4722580645161 68  C 37.7002150537634 68  36.1939784946237 67.4657687991021  34.9535483870968 66.3973063973064  L 25.9161290322581 58.6127946127946  L 1.86064516129032 37.8922558922559  C 0.620215053763441 36.8237934904602  0 35.5263748597082  0 34  C 0 32.4736251402918  0.620215053763441 31.1762065095398  1.86064516129032 30.1077441077441  L 10.898064516129 22.3232323232323  C 12.1384946236559 21.2547699214366  13.6447311827957 20.7205387205387  15.4167741935484 20.7205387205387  C 17.1888172043011 20.7205387205387  18.6950537634409 21.2547699214366  19.9354838709677 22.3232323232323  L 39.4722580645161 39.2087542087542  L 83.0645161290323 1.6026936026936  C 84.3049462365591 0.534231200897865  85.8111827956989 0  87.5832258064516 0  C 89.3552688172043 0  90.8615053763441 0.534231200897865  92.101935483871 1.6026936026936  L 101.13935483871 9.38720538720539  Z " fill-rule="nonzero" fill="#4b7902" stroke="none" transform="matrix(1 0 0 1 40 112 )" />
  </g>
</svg>