<?xml version="1.0" encoding="utf-8"?>
<svg version="1.1" xmlns:xlink="http://www.w3.org/1999/xlink" width="35px" height="28px" xmlns="http://www.w3.org/2000/svg">
  <defs>
    <mask fill="white" id="clip7">
      <path d="M 0 28  L 0 0  L 16 0  L 20 0  L 22 0  L 35 0  L 35 28  L 0 28  Z " fill-rule="evenodd" />
    </mask>
  </defs>
  <g transform="matrix(1 0 0 1 -303 -47 )">
    <path d="M 0 28  L 0 0  L 16 0  L 20 0  L 22 0  L 35 0  L 35 28  L 0 28  Z " fill-rule="nonzero" fill="#ffffff" stroke="none" transform="matrix(1 0 0 1 303 47 )" />
    <path d="M 0 28  L 0 0  L 16 0  L 20 0  L 22 0  L 35 0  L 35 28  L 0 28  Z " stroke-width="2" stroke="#aaaaaa" fill="none" transform="matrix(1 0 0 1 303 47 )" mask="url(#clip7)" />
  </g>
</svg>